# xmcd
#
# Track frame offsets:
#	150
#	16452
#	31249
#	46908
#	63487
#	81611
#	95161
#	106581
#	124204
#	143444
#	160016
#	175158
#	188101
#	202612
#	214130
#	227247
#	245536
#	259729
#	278451
#	293649
#
# Disc length: 4112 seconds
#
# Revision: 0
# Processed by: cddbd v1.5.2PL0 Copyright (c) Steve Scherf et al.
# Submitted via: EasyCDDAExtractor 11.5.3.1
#
DISCID=11100e14
DTITLE=Kari Piironen - Juhlalevy
DYEAR=1900
DGENRE=
TTITLE0=Kanssasi
TTITLE1=Tyttö Metsässä
TTITLE2=Elämän Mittainen Matka
TTITLE3=Yön Kukka
TTITLE4=Tää Tanssi Kiihdyttää
TTITLE5=Mutkasta Mutkaan
TTITLE6=Riivaa El Tango
TTITLE7=Tuulen Varjo
TTITLE8=Jäikö Kaikki Yhteen Iltaan
TTITLE9=Päivän Vain
TTITLE10=Suunnaton Kaipaus
TTITLE11=Orjan Ruusu
TTITLE12=Sateinen Ilta
TTITLE13=Saanhan Tulla Luokses Takaisin
TTITLE14=Parhainta Aikaa Mulle
TTITLE15=Hetken Kestää Kesää
TTITLE16=Muistojen Hetket
TTITLE17=Mulle Unelman Onnesta Annoit
TTITLE18=Tulikannel
TTITLE19=Lumen Alla
EXTD=
EXTT0=
EXTT1=
EXTT2=
EXTT3=
EXTT4=
EXTT5=
EXTT6=
EXTT7=
EXTT8=
EXTT9=
EXTT10=
EXTT11=
EXTT12=
EXTT13=
EXTT14=
EXTT15=
EXTT16=
EXTT17=
EXTT18=
EXTT19=
PLAYORDER=
